<!DOCTYPE svg PUBLIC "-//W3C//DTD SVG 1.1//EN" "http://www.w3.org/Graphics/SVG/1.1/DTD/svg11.dtd">
<!-- Uploaded to: SVG Repo, www.svgrepo.com, Transformed by: SVG Repo Mixer Tools -->
<svg height="100px" width="100px" version="1.1" id="Layer_1" xmlns="http://www.w3.org/2000/svg" xmlns:xlink="http://www.w3.org/1999/xlink" viewBox="0 0 512 512" xml:space="preserve" fill="#000000">
<g id="SVGRepo_bgCarrier" stroke-width="0"/>
<g id="SVGRepo_tracerCarrier" stroke-linecap="round" stroke-linejoin="round"/>
<g id="SVGRepo_iconCarrier"> <path style="fill:#F4DE3B;" d="M348.311,235.479v0.012l-92.306,113.786l-92.319-113.799c2.161-42.693,7.929-82.095,16.392-115.644 C197.005,52.796,224.702,9.108,255.993,9.108c31.303,0,59,43.688,75.914,110.739C340.382,153.396,346.138,192.786,348.311,235.479z"/> <path style="fill:#E0C734;" d="M224.704,253.644c0-106.518,25.801-197.05,61.74-230.118c-9.544-9.338-19.788-14.419-30.453-14.419 c-31.291,0-58.988,43.688-75.914,110.727c-8.463,33.549-14.231,72.952-16.392,115.644l63.885,78.75 C225.7,294.857,224.704,274.559,224.704,253.644z"/> <path style="fill:#9AD14B;" d="M431.742,132.656L300.871,472.096c-5.671,14.717-16.781,24.163-29.421,28.316 c-22.621,7.468-50.172-1.967-60.323-28.316L80.268,132.656l40.968,50.5l42.45,52.322l16.174,19.926l76.145,93.873l92.306-113.786 l42.45-52.322L431.742,132.656z"/> <path style="fill:#90BC42;" d="M271.45,500.414c-22.621,7.468-50.172-1.967-60.323-28.316L80.268,132.656l40.968,50.5l42.45,52.322 l16.174,19.926C193.374,342.112,221.423,471.066,271.45,500.414z"/> <g> <path style="fill:#7DA032;" d="M179.969,119.81l0.109,0.024c-8.463,33.549-14.231,72.952-16.392,115.644l-42.45-52.322 l16.417-97.37L179.969,119.81z"/> <path style="fill:#7DA032;" d="M374.345,85.787l16.417,97.382l-42.45,52.322v-0.012c-2.173-42.693-7.929-82.083-16.404-115.632 l0.121-0.036L374.345,85.787z"/> </g> <g> <path style="fill:#FFFFFF;" d="M316.721,226.753c-4.702,0-8.688-3.616-9.068-8.384c-2.543-31.927-7.386-62.654-14.006-88.857 c-2.347-9.305-4.933-18.158-7.69-26.316c-1.609-4.765,0.95-9.932,5.715-11.541c4.761-1.608,9.932,0.948,11.541,5.715 c2.907,8.609,5.629,17.923,8.092,27.686c6.865,27.172,11.88,58.942,14.504,91.868c0.4,5.014-3.342,9.402-8.355,9.801 C317.209,226.743,316.963,226.753,316.721,226.753z"/> <circle style="fill:#FFFFFF;" cx="283.441" cy="72.649" r="9.107"/> </g> <g> <path style="fill:#333333;" d="M436.3,124.779c-3.876-2.245-8.812-1.336-11.635,2.144l-28.272,34.85l-13.065-77.496 c-0.537-3.187-2.724-5.85-5.743-6.999c-3.021-1.147-6.425-0.61-8.943,1.416l-31.562,25.378 c-3.41-11.869-7.186-22.988-11.308-33.194C302.107,12.297,274.764,0,255.993,0c-18.767,0-46.103,12.297-69.767,70.878 c-4.122,10.206-7.897,21.324-11.307,33.192l-31.561-25.376c-2.518-2.025-5.919-2.563-8.943-1.416 c-3.021,1.149-5.207,3.812-5.743,6.999l-13.064,77.488l-28.272-34.85c-2.823-3.48-7.758-4.388-11.635-2.144 c-3.878,2.245-5.547,6.977-3.935,11.156l130.857,339.448c8.709,22.591,29.16,36.625,53.372,36.625c0.001,0,0,0,0,0 c24.21,0,44.662-14.034,53.372-36.624l130.867-339.441C441.845,131.755,440.177,127.023,436.3,124.779z M367.949,102.62 l13.151,78.003l-25.25,31.125c-2.64-31.586-7.304-61.516-13.711-88.374L367.949,102.62z M203.115,77.699 c15.269-37.804,34.543-59.486,52.878-59.486c18.341,0,37.62,21.681,52.891,59.486c16.137,39.948,26.808,94.803,30.148,154.779 l-83.029,102.346L172.968,232.47C176.309,172.499,186.979,117.648,203.115,77.699z M144.051,102.62l25.81,20.753 c-6.408,26.857-11.071,56.783-13.71,88.366l-25.249-31.123L144.051,102.62z M292.371,468.824 c-7.096,18.404-23.445,24.962-36.377,24.962s-29.281-6.558-36.376-24.964L109.479,183.12l197.494,243.442l1.135,1.446 L292.371,468.824z M315.676,408.379l-47.945-59.099l134.787-166.147L315.676,408.379z"/> <circle style="fill:#333333;" cx="235.757" cy="75.137" r="9.107"/> <circle style="fill:#333333;" cx="235.757" cy="122.529" r="9.107"/> <circle style="fill:#333333;" cx="235.757" cy="169.751" r="9.107"/> <circle style="fill:#333333;" cx="235.757" cy="217.143" r="9.107"/> <circle style="fill:#333333;" cx="235.757" cy="264.716" r="9.107"/> <circle style="fill:#333333;" cx="201.674" cy="241.646" r="9.107"/> <circle style="fill:#333333;" cx="201.674" cy="194.254" r="9.107"/> <circle style="fill:#333333;" cx="201.674" cy="146.85" r="9.107"/> <circle style="fill:#333333;" cx="271.274" cy="150.226" r="9.107"/> <circle style="fill:#333333;" cx="271.274" cy="197.618" r="9.107"/> <circle style="fill:#333333;" cx="271.274" cy="245.021" r="9.107"/> <circle style="fill:#333333;" cx="271.274" cy="292.413" r="9.107"/> </g> </g>
</svg>